<mxfile host="app.diagrams.net" modified="2023-01-16T16:25:42.437Z" agent="5.0 (X11)" version="20.8.5" etag="jZpIr_gr2YvVLCT2lBZ1" type="github">
  <diagram id="TCkKbher_OkzVkFQ5eHe" name="Page-1">
    <mxGraphModel dx="989" dy="522" grid="1" gridSize="10" guides="1" tooltips="1" connect="1" arrows="1" fold="1" page="1" pageScale="1" pageWidth="850" pageHeight="1100" math="0" shadow="0">
      <root>
        <mxCell id="0" />
        <mxCell id="1" parent="0" />
        <mxCell id="z24nfYGeh4m_hOA_u5d5-23" style="edgeStyle=orthogonalEdgeStyle;rounded=0;orthogonalLoop=1;jettySize=auto;html=1;exitX=0.5;exitY=1;exitDx=0;exitDy=0;entryX=0.5;entryY=0;entryDx=0;entryDy=0;" edge="1" parent="1" source="z24nfYGeh4m_hOA_u5d5-1" target="z24nfYGeh4m_hOA_u5d5-2">
          <mxGeometry relative="1" as="geometry" />
        </mxCell>
        <mxCell id="z24nfYGeh4m_hOA_u5d5-24" style="edgeStyle=orthogonalEdgeStyle;rounded=0;orthogonalLoop=1;jettySize=auto;html=1;exitX=0.5;exitY=1;exitDx=0;exitDy=0;entryX=0.5;entryY=0;entryDx=0;entryDy=0;" edge="1" parent="1" source="z24nfYGeh4m_hOA_u5d5-1" target="z24nfYGeh4m_hOA_u5d5-7">
          <mxGeometry relative="1" as="geometry" />
        </mxCell>
        <mxCell id="z24nfYGeh4m_hOA_u5d5-25" style="edgeStyle=orthogonalEdgeStyle;rounded=0;orthogonalLoop=1;jettySize=auto;html=1;exitX=0.5;exitY=1;exitDx=0;exitDy=0;entryX=0.5;entryY=0;entryDx=0;entryDy=0;" edge="1" parent="1" source="z24nfYGeh4m_hOA_u5d5-1" target="z24nfYGeh4m_hOA_u5d5-6">
          <mxGeometry relative="1" as="geometry" />
        </mxCell>
        <mxCell id="z24nfYGeh4m_hOA_u5d5-26" style="edgeStyle=orthogonalEdgeStyle;rounded=0;orthogonalLoop=1;jettySize=auto;html=1;exitX=0.5;exitY=1;exitDx=0;exitDy=0;entryX=0.5;entryY=0;entryDx=0;entryDy=0;" edge="1" parent="1" source="z24nfYGeh4m_hOA_u5d5-1" target="z24nfYGeh4m_hOA_u5d5-4">
          <mxGeometry relative="1" as="geometry" />
        </mxCell>
        <mxCell id="z24nfYGeh4m_hOA_u5d5-27" style="edgeStyle=orthogonalEdgeStyle;rounded=0;orthogonalLoop=1;jettySize=auto;html=1;exitX=0.5;exitY=1;exitDx=0;exitDy=0;entryX=0.5;entryY=0;entryDx=0;entryDy=0;" edge="1" parent="1" source="z24nfYGeh4m_hOA_u5d5-1" target="z24nfYGeh4m_hOA_u5d5-5">
          <mxGeometry relative="1" as="geometry" />
        </mxCell>
        <mxCell id="z24nfYGeh4m_hOA_u5d5-1" value="home page" style="rounded=0;whiteSpace=wrap;html=1;" vertex="1" parent="1">
          <mxGeometry x="360" y="80" width="120" height="60" as="geometry" />
        </mxCell>
        <mxCell id="z24nfYGeh4m_hOA_u5d5-2" value="about us" style="rounded=0;whiteSpace=wrap;html=1;" vertex="1" parent="1">
          <mxGeometry x="80" y="260" width="120" height="60" as="geometry" />
        </mxCell>
        <mxCell id="z24nfYGeh4m_hOA_u5d5-16" style="edgeStyle=orthogonalEdgeStyle;rounded=0;orthogonalLoop=1;jettySize=auto;html=1;exitX=0.5;exitY=1;exitDx=0;exitDy=0;entryX=0.5;entryY=0;entryDx=0;entryDy=0;" edge="1" parent="1" source="z24nfYGeh4m_hOA_u5d5-4" target="z24nfYGeh4m_hOA_u5d5-15">
          <mxGeometry relative="1" as="geometry" />
        </mxCell>
        <mxCell id="z24nfYGeh4m_hOA_u5d5-4" value="previous trainees" style="rounded=0;whiteSpace=wrap;html=1;" vertex="1" parent="1">
          <mxGeometry x="500" y="260" width="120" height="60" as="geometry" />
        </mxCell>
        <mxCell id="z24nfYGeh4m_hOA_u5d5-14" style="edgeStyle=orthogonalEdgeStyle;rounded=0;orthogonalLoop=1;jettySize=auto;html=1;exitX=0.5;exitY=1;exitDx=0;exitDy=0;entryX=0.5;entryY=0;entryDx=0;entryDy=0;" edge="1" parent="1" source="z24nfYGeh4m_hOA_u5d5-5" target="z24nfYGeh4m_hOA_u5d5-13">
          <mxGeometry relative="1" as="geometry" />
        </mxCell>
        <mxCell id="z24nfYGeh4m_hOA_u5d5-5" value="contact form" style="rounded=0;whiteSpace=wrap;html=1;" vertex="1" parent="1">
          <mxGeometry x="640" y="260" width="120" height="60" as="geometry" />
        </mxCell>
        <mxCell id="z24nfYGeh4m_hOA_u5d5-6" value="job specifications" style="rounded=0;whiteSpace=wrap;html=1;" vertex="1" parent="1">
          <mxGeometry x="360" y="260" width="120" height="60" as="geometry" />
        </mxCell>
        <mxCell id="z24nfYGeh4m_hOA_u5d5-20" style="edgeStyle=orthogonalEdgeStyle;rounded=0;orthogonalLoop=1;jettySize=auto;html=1;exitX=0.5;exitY=1;exitDx=0;exitDy=0;entryX=0.5;entryY=0;entryDx=0;entryDy=0;" edge="1" parent="1" source="z24nfYGeh4m_hOA_u5d5-7" target="z24nfYGeh4m_hOA_u5d5-19">
          <mxGeometry relative="1" as="geometry" />
        </mxCell>
        <mxCell id="z24nfYGeh4m_hOA_u5d5-7" value="qualifications" style="rounded=0;whiteSpace=wrap;html=1;" vertex="1" parent="1">
          <mxGeometry x="220" y="260" width="120" height="60" as="geometry" />
        </mxCell>
        <mxCell id="z24nfYGeh4m_hOA_u5d5-13" value="data to external db" style="rounded=0;whiteSpace=wrap;html=1;" vertex="1" parent="1">
          <mxGeometry x="640" y="370" width="120" height="60" as="geometry" />
        </mxCell>
        <mxCell id="z24nfYGeh4m_hOA_u5d5-15" value="could link to linkedin profiles" style="rounded=0;whiteSpace=wrap;html=1;" vertex="1" parent="1">
          <mxGeometry x="500" y="370" width="120" height="60" as="geometry" />
        </mxCell>
        <mxCell id="z24nfYGeh4m_hOA_u5d5-17" value="external website with courses" style="rounded=0;whiteSpace=wrap;html=1;" vertex="1" parent="1">
          <mxGeometry x="220" y="470" width="120" height="60" as="geometry" />
        </mxCell>
        <mxCell id="z24nfYGeh4m_hOA_u5d5-21" style="edgeStyle=orthogonalEdgeStyle;rounded=0;orthogonalLoop=1;jettySize=auto;html=1;exitX=0.5;exitY=1;exitDx=0;exitDy=0;entryX=0.5;entryY=0;entryDx=0;entryDy=0;" edge="1" parent="1" source="z24nfYGeh4m_hOA_u5d5-19" target="z24nfYGeh4m_hOA_u5d5-17">
          <mxGeometry relative="1" as="geometry" />
        </mxCell>
        <mxCell id="z24nfYGeh4m_hOA_u5d5-19" value="what we want for qualifications" style="rounded=0;whiteSpace=wrap;html=1;" vertex="1" parent="1">
          <mxGeometry x="220" y="370" width="120" height="60" as="geometry" />
        </mxCell>
      </root>
    </mxGraphModel>
  </diagram>
</mxfile>
